<?xml version="1.0" encoding="UTF-8"?>
<!DOCTYPE svg PUBLIC "-//W3C//DTD SVG 1.1//EN" "http://www.w3.org/Graphics/SVG/1.1/DTD/svg11.dtd">
<!-- Creator: CorelDRAW -->
<svg xmlns="http://www.w3.org/2000/svg" xml:space="preserve" width="10mm" height="10mm" version="1.1" style="shape-rendering:geometricPrecision; text-rendering:geometricPrecision; image-rendering:optimizeQuality; fill-rule:evenodd; clip-rule:evenodd"
viewBox="0 0 1000 1000"
 xmlns:xlink="http://www.w3.org/1999/xlink"
 xmlns:xodm="http://www.corel.com/coreldraw/odm/2003">
 <defs>
  <style type="text/css">
   <![CDATA[
    .str0 {stroke:black;stroke-width:52.92;stroke-miterlimit:22.9256}
    .fil0 {fill:none}
    .fil2 {fill:#31A36E;fill-rule:nonzero}
    .fil1 {fill:#4670A4;fill-rule:nonzero}
    .fil3 {fill:#FFC24C;fill-rule:nonzero}
   ]]>
  </style>
 </defs>
 <g id="Layer_x0020_1">
  <metadata id="CorelCorpID_0Corel-Layer"/>
  <g id="_220463472">
   <line class="fil0 str0" x1="531.51" y1="279.07" x2="257.11" y2= "279.07" />
   <line class="fil0 str0" x1="597.83" y1="508" x2="200.96" y2= "508" />
   <line class="fil0 str0" x1="750.54" y1="671.42" x2="750.54" y2= "527" />
   <line class="fil0 str0" x1="733.72" y1="510.14" x2="589.31" y2= "510.14" />
   <line class="fil0 str0" x1="776.09" y1="693.21" x2="386.17" y2= "693.21" />
   <line class="fil0 str0" x1="230.68" y1="483.68" x2="230.68" y2= "252.61" />
   <path class="fil1" d="M492 216.96l105.83 0c29.21,-0.01 52.91,23.69 52.91,52.91l0.01 0c-0.01,29.22 -23.71,52.92 -52.93,52.92l-105.82 0c-29.21,0 -52.91,-23.7 -52.91,-52.92l-0.01 0c0.01,-29.22 23.71,-52.92 52.92,-52.92z"/>
   <path class="fil1" d="M306.79 640.29l105.83 0c29.23,-0.02 52.93,23.68 52.93,52.9l-0.01 0.02c0.01,29.2 -23.69,52.9 -52.91,52.9l-105.84 0.02c-29.21,-0.02 -52.91,-23.72 -52.91,-52.94l-0.01 0.02c0.01,-29.24 23.71,-52.94 52.93,-52.94z"/>
   <path class="fil2" d="M703.67 455.08l105.83 0c14.6,0 26.45,11.85 26.45,26.46l0.01 52.92c-0.01,14.59 -11.86,26.44 -26.47,26.44l-105.82 0.02c-14.62,-0.02 -26.47,-11.87 -26.47,-26.48l0.01 -52.9c-0.01,-14.61 11.84,-26.46 26.45,-26.46z"/>
   <polygon class="fil2" points="181.46,455.08 359.71,455.08 326.29,560.92 148.04,560.92 "/>
   <polygon class="fil3" points="531.69,428.62 634.8,508 428.58,508 "/>
   <polygon class="fil3" points="531.69,587.38 428.58,508 634.8,508 "/>
  </g>
 </g>
</svg>
