<?xml version="1.0" encoding="UTF-8"?>
<!DOCTYPE svg PUBLIC "-//W3C//DTD SVG 1.1//EN" "http://www.w3.org/Graphics/SVG/1.1/DTD/svg11.dtd">
<!-- Creator: CorelDRAW -->
<svg xmlns="http://www.w3.org/2000/svg" xml:space="preserve" width="10mm" height="10mm" version="1.1" style="shape-rendering:geometricPrecision; text-rendering:geometricPrecision; image-rendering:optimizeQuality; fill-rule:evenodd; clip-rule:evenodd"
viewBox="0 0 1000 1000"
 xmlns:xlink="http://www.w3.org/1999/xlink"
 xmlns:xodm="http://www.corel.com/coreldraw/odm/2003">
 <defs>
  <style type="text/css">
   <![CDATA[
    .fil0 {fill:#31A36E;fill-rule:nonzero}
   ]]>
  </style>
 </defs>
 <g id="Layer_x0020_1">
  <metadata id="CorelCorpID_0Corel-Layer"/>
  <g id="_2028086544">
   <path class="fil0" d="M497.88 302.17c-81.69,0 -134.62,33.47 -176.16,93.17 -7.55,10.82 -5.22,25.68 5.3,33.65l44.15 33.48c10.62,8.05 25.73,6.16 34.04,-4.25 25.63,-32.12 44.66,-50.61 84.71,-50.61 31.49,0 70.45,20.26 70.45,50.8 0,23.09 -19.06,34.94 -50.17,52.37 -36.25,20.33 -84.23,45.64 -84.23,108.91l0 10.03c0,13.57 11,24.56 24.56,24.56l74.19 0c13.56,0 24.57,-10.99 24.57,-24.56l0 -5.91c0,-43.87 128.22,-45.71 128.22,-164.42 0,-89.41 -92.74,-157.22 -179.63,-157.22zm-10.26 382.27c-39.08,0 -70.91,31.81 -70.91,70.91 0,39.09 31.83,70.89 70.91,70.89 39.11,0 70.91,-31.8 70.91,-70.89 0,-39.1 -31.8,-70.91 -70.91,-70.91z"/>
  </g>
 </g>
</svg>
