<?xml version="1.0" encoding="UTF-8"?>
<!DOCTYPE svg PUBLIC "-//W3C//DTD SVG 1.1//EN" "http://www.w3.org/Graphics/SVG/1.1/DTD/svg11.dtd">
<!-- Creator: CorelDRAW -->
<svg xmlns="http://www.w3.org/2000/svg" xml:space="preserve" width="10mm" height="10mm" version="1.1" style="shape-rendering:geometricPrecision; text-rendering:geometricPrecision; image-rendering:optimizeQuality; fill-rule:evenodd; clip-rule:evenodd"
viewBox="0 0 1000 1000"
 xmlns:xlink="http://www.w3.org/1999/xlink"
 xmlns:xodm="http://www.corel.com/coreldraw/odm/2003">
 <defs>
  <style type="text/css">
   <![CDATA[
    .fil1 {fill:none}
    .fil0 {fill:#31A36E;fill-rule:nonzero}
   ]]>
  </style>
    <clipPath id="id0">
     <path d="M237.6 757.32l508.81 0 0 -508.81 -508.81 0 0 508.81z"/>
    </clipPath>
 </defs>
 <g id="Layer_x0020_1">
  <metadata id="CorelCorpID_0Corel-Layer"/>
  <g id="_2015580160">
   <g>
   </g>
   <g style="clip-path:url(#id0)">
    <g>
     <path class="fil0" d="M485.26 407.74l-162.87 134.13 0 144.78c0,3.75 1.49,7.34 4.14,9.99 2.65,2.65 6.25,4.14 10,4.14l98.99 -0.25c3.73,-0.02 7.31,-1.52 9.95,-4.17 2.63,-2.65 4.11,-6.23 4.11,-9.97l0 -84.54c0,-3.75 1.49,-7.35 4.14,-10 2.65,-2.65 6.24,-4.14 9.99,-4.14l56.54 0c3.75,0 7.34,1.49 9.99,4.14 2.65,2.65 4.14,6.25 4.14,10l0 84.48c0,1.86 0.36,3.7 1.06,5.42 0.71,1.72 1.75,3.29 3.07,4.6 1.31,1.32 2.87,2.37 4.59,3.08 1.71,0.71 3.55,1.08 5.42,1.08l98.95 0.27c3.75,0 7.34,-1.49 9.99,-4.14 2.65,-2.65 4.14,-6.24 4.14,-9.99l0 -144.87 -162.83 -134.04c-1.91,-1.55 -4.3,-2.39 -6.75,-2.39 -2.46,0 -4.85,0.84 -6.76,2.39zm257.26 91.17l-73.85 -60.87 0 -122.36c0,-2.81 -1.12,-5.5 -3.11,-7.49 -1.98,-1.99 -4.68,-3.11 -7.49,-3.11l-49.47 0c-2.81,0 -5.51,1.12 -7.49,3.11 -1.99,1.99 -3.11,4.68 -3.11,7.49l0 64.14 -79.09 -65.06c-7.58,-6.25 -17.11,-9.66 -26.94,-9.66 -9.83,0 -19.35,3.41 -26.94,9.66l-223.61 184.15c-1.07,0.89 -1.96,1.98 -2.61,3.21 -0.65,1.23 -1.05,2.58 -1.19,3.96 -0.13,1.39 0.02,2.79 0.42,4.12 0.42,1.33 1.08,2.57 1.97,3.64l22.53 27.38c0.88,1.08 1.97,1.97 3.2,2.63 1.23,0.65 2.58,1.06 3.97,1.19 1.38,0.13 2.78,-0.01 4.12,-0.42 1.33,-0.4 2.57,-1.07 3.64,-1.96l207.79 -171.14c1.91,-1.54 4.3,-2.38 6.76,-2.38 2.45,0 4.84,0.84 6.75,2.38l207.8 171.14c1.07,0.89 2.31,1.56 3.64,1.97 1.33,0.41 2.73,0.55 4.11,0.42 1.39,-0.13 2.74,-0.53 3.97,-1.19 1.23,-0.65 2.32,-1.54 3.2,-2.61l22.53 -27.39c0.89,-1.07 1.55,-2.32 1.96,-3.66 0.4,-1.33 0.54,-2.73 0.4,-4.13 -0.14,-1.39 -0.55,-2.73 -1.22,-3.96 -0.66,-1.23 -1.56,-2.32 -2.64,-3.2z"/>
    </g>
   </g>
   <polygon class="fil1" points="237.6,757.32 746.41,757.32 746.41,248.51 237.6,248.51 "/>
  </g>
 </g>
</svg>
