<?xml version="1.0" encoding="UTF-8"?>
<!DOCTYPE svg PUBLIC "-//W3C//DTD SVG 1.1//EN" "http://www.w3.org/Graphics/SVG/1.1/DTD/svg11.dtd">
<!-- Creator: CorelDRAW -->
<svg xmlns="http://www.w3.org/2000/svg" xml:space="preserve" width="10mm" height="10mm" version="1.1" style="shape-rendering:geometricPrecision; text-rendering:geometricPrecision; image-rendering:optimizeQuality; fill-rule:evenodd; clip-rule:evenodd"
viewBox="0 0 1000 1000"
 xmlns:xlink="http://www.w3.org/1999/xlink"
 xmlns:xodm="http://www.corel.com/coreldraw/odm/2003">
 <defs>
  <style type="text/css">
   <![CDATA[
    .str1 {stroke:#FFC24C;stroke-width:26.46;stroke-linecap:round;stroke-miterlimit:22.9256}
    .str0 {stroke:#31A36E;stroke-width:79.38;stroke-linecap:round;stroke-linejoin:round;stroke-miterlimit:22.9256}
    .fil0 {fill:none}
   ]]>
  </style>
    <clipPath id="id0">
     <path d="M260.61 738.66l461.17 0 0 -461.18 -461.17 0 0 461.18z"/>
    </clipPath>
 </defs>
 <g id="Layer_x0020_1">
  <metadata id="CorelCorpID_0Corel-Layer"/>
  <g id="_2019682544">
   <g>
   </g>
   <g style="clip-path:url(#id0)">
    <g>
     <line class="fil0 str0" x1="491.19" y1="296.7" x2="491.19" y2= "719.44" />
     <path class="fil0 str0" d="M587.27 373.56l-144.12 0c-17.84,0 -34.94,7.08 -47.55,19.7 -12.62,12.61 -19.7,29.72 -19.7,47.55 0,17.84 7.08,34.95 19.7,47.56 12.61,12.61 29.71,19.7 47.55,19.7l96.08 0c17.84,0 34.94,7.08 47.56,19.69 12.61,12.62 19.7,29.73 19.7,47.56 0,17.84 -7.09,34.94 -19.7,47.56 -12.62,12.61 -29.72,19.7 -47.56,19.7l-163.33 0"/>
    </g>
   </g>
   <polygon class="fil0" points="260.61,738.66 721.78,738.66 721.78,277.48 260.61,277.48 "/>
   <path class="fil0 str1" d="M843.64 196.06c0,0 132.13,104.07 127.35,321.52 -4.79,217.45 -193.49,353.17 -193.49,353.17"/>
  </g>
 </g>
</svg>
